Coordinates
version=1
nRows=32
nColumns=22
inDegrees=yes

Units are S.I. units (second, meters, Newtons, ...)
If the header above contains a line with 'inDegrees', this indicates whether rotational values are in degrees (yes) or radians (no).

endheader
time	pelvis_tilt	pelvis_list	pelvis_rotation	pelvis_tx	pelvis_ty	pelvis_tz	hip_flexion_r	hip_adduction_r	hip_rotation_r	knee_angle_r	ankle_angle_r	subtalar_angle_r	hip_flexion_l	hip_adduction_l	hip_rotation_l	knee_angle_l	ankle_angle_l	subtalar_angle_l	lumbar_extension	lumbar_bending	lumbar_rotation
      1.10000000	      4.91445557	     -2.26323378	     -0.90009747	     -0.68020066	      0.94892571	      0.55891696	     -0.57676368	      3.10644046	     -8.64902786	    -18.23102102	     14.17375853	     -1.52493293	     -2.00009636	     -2.88583874	     -7.32285224	    -18.01193380	     23.61815042	     -5.73161442	    -12.06548282	      2.97986330	    -10.71053801
      1.11000000	      4.85330167	     -2.20971646	     -0.99966640	     -0.67887765	      0.94866337	      0.56007413	     -0.51176996	      3.10573539	     -8.57734869	    -18.40299192	     14.37408291	     -1.55935803	     -2.06685848	     -2.90866632	     -7.38597891	    -17.97660757	     23.78361481	     -5.34864769	    -12.00189063	      2.95969092	    -10.76129517
      1.12000000	      4.76731521	     -2.15343219	     -1.09956652	     -0.67747537	      0.94835955	      0.56129115	     -0.43558363	      3.11104175	     -8.48483379	    -18.55320570	     14.54657064	     -1.61734368	     -2.10893924	     -2.93217192	     -7.44085855	    -17.94028704	     23.91987209	     -4.85111331	    -11.90598858	      2.94033309	    -10.82578887
      1.13000000	      4.68383092	     -2.10079786	     -1.19098443	     -0.67601603	      0.94804829	      0.56258125	     -0.37583117	      3.13151557	     -8.38282997	    -18.68397732	     14.72101028	     -1.68623628	     -2.15392703	     -2.96548563	     -7.48599044	    -17.90279779	     24.03489680	     -4.36626626	    -11.81834063	      2.92243297	    -10.90158844
      1.14000000	      4.60239269	     -2.04755936	     -1.27963707	     -0.67448818	      0.94772211	      0.56391981	     -0.33045872	      3.16007078	     -8.25781660	    -18.80012713	     14.90387742	     -1.77623485	     -2.19989145	     -3.00311850	     -7.53637170	    -17.87121273	     24.12324146	     -3.86242917	    -11.73561439	      2.90953079	    -10.97737294
      1.15000000	      4.53267724	     -2.00039896	     -1.36638681	     -0.67292408	      0.94739455	      0.56532814	     -0.30665017	      3.20522577	     -8.11169056	    -18.90309127	     15.09225552	     -1.88204014	     -2.25531319	     -3.05182603	     -7.57809831	    -17.84582369	     24.19518181	     -3.38871893	    -11.67842665	      2.90066553	    -11.04755313
      1.16000000	      4.47388556	     -1.95672186	     -1.45109278	     -0.67131517	      0.94706812	      0.56678282	     -0.30676328	      3.26475705	     -7.93381959	    -18.98759852	     15.28047255	     -2.02151911	     -2.31511458	     -3.10920371	     -7.62307667	    -17.83813900	     24.24233670	     -2.89958307	    -11.64435456	      2.90184551	    -11.11829842
      1.17000000	      4.43005860	     -1.91762926	     -1.51973641	     -0.66967402	      0.94674996	      0.56828781	     -0.33700984	      3.34288142	     -7.72794743	    -19.05126197	     15.45846832	     -2.17479545	     -2.37655882	     -3.17791417	     -7.64731524	    -17.85774153	     24.27615131	     -2.46819322	    -11.63972286	      2.90705096	    -11.19365795
      1.18000000	      4.40423666	     -1.87122950	     -1.57116953	     -0.66802278	      0.94644673	      0.56983250	     -0.39933953	      3.42465155	     -7.49868548	    -19.09370054	     15.59832066	     -2.39135222	     -2.41637397	     -3.25011914	     -7.67415476	    -17.95359634	     24.27383502	     -1.98394907	    -11.67047442	      2.90100574	    -11.26744790
      1.19000000	      4.38364675	     -1.83817580	     -1.60506854	     -0.66633429	      0.94614482	      0.57142102	     -0.48434004	      3.53203099	     -7.25306165	    -19.11161343	     15.75469494	     -2.57881760	     -2.43528852	     -3.34168386	     -7.65858141	    -18.10156233	     24.27306634	     -1.61422113	    -11.71500208	      2.90987623	    -11.33792788
      1.20000000	      4.36923779	     -1.82269979	     -1.61963489	     -0.66463252	      0.94585176	      0.57302463	     -0.58854936	      3.66415577	     -7.01030072	    -19.11020015	     15.90228351	     -2.73239825	     -2.40845594	     -3.45661849	     -7.59798261	    -18.35014712	     24.25243301	     -1.32654845	    -11.77879611	      2.94457854	    -11.39890658
      1.21000000	      4.34999981	     -1.80065529	     -1.61395186	     -0.66292805	      0.94555900	      0.57467241	     -0.70491902	      3.79636635	     -6.76979276	    -19.07792981	     15.99545975	     -2.92874428	     -2.29844997	     -3.57809370	     -7.52942289	    -18.74012355	     24.20147211	     -0.99376584	    -11.84744358	      2.96613429	    -11.48247842
      1.22000000	      4.35881209	     -1.76164290	     -1.59101377	     -0.66120759	      0.94533969	      0.57630969	     -0.86900103	      3.90710062	     -6.54900066	    -19.01960300	     16.10318215	     -2.96487285	     -2.14809122	     -3.67362937	     -7.37460587	    -19.25962707	     24.06891138	     -0.93769162	    -11.95843508	      2.97363010	    -11.56342736
      1.23000000	      4.29994589	     -1.79223996	     -1.53035575	     -0.65953014	      0.94501049	      0.57798709	     -0.97606975	      4.10157315	     -6.37378856	    -18.92709285	     16.12880634	     -3.13229274	     -1.76823141	     -3.87261867	     -7.18890394	    -20.06867017	     24.00316116	     -0.70265285	    -12.00767074	      3.06072835	    -11.60662185
      1.24000000	      4.26235131	     -1.81014103	     -1.46409720	     -0.65787076	      0.94476202	      0.57967794	     -1.12323815	      4.27693664	     -6.22574282	    -18.80080484	     16.16486108	     -3.20764348	     -1.30608429	     -4.04986886	     -6.91466398	    -21.06666588	     23.82207801	     -0.65350565	    -12.10024407	      3.13208559	    -11.64114309
      1.25000000	      4.21046950	     -1.84870828	     -1.37386489	     -0.65624596	      0.94452356	      0.58136876	     -1.26996442	      4.47313721	     -6.11768383	    -18.64407995	     16.16050592	     -3.24284083	     -0.68171177	     -4.24970979	     -6.55079508	    -22.32619894	     23.59939566	     -0.70596467	    -12.19400573	      3.22800838	    -11.65884176
      1.26000000	      4.13892529	     -1.90409250	     -1.26245211	     -0.65466025	      0.94428570	      0.58305674	     -1.41128453	      4.68486596	     -6.05976422	    -18.45258999	     16.13057214	     -3.23924282	      0.11683704	     -4.46108161	     -6.08520188	    -23.85286060	     23.31451631	     -0.85995294	    -12.28504128	      3.34252220	    -11.65625618
      1.27000000	      4.06939755	     -1.97502830	     -1.12667842	     -0.65308617	      0.94407394	      0.58472378	     -1.57344488	      4.91001443	     -6.04781669	    -18.22602928	     16.08568795	     -3.19322965	      1.06088079	     -4.67415277	     -5.51456162	    -25.63324198	     22.94415649	     -1.10716472	    -12.39191920	      3.47304096	    -11.62998465
      1.28000000	      3.99738791	     -2.06188431	     -0.96841778	     -0.65151311	      0.94387021	      0.58635164	     -1.75011714	      5.14786849	     -6.08822165	    -17.96658263	     16.02933365	     -3.10545172	      2.14967041	     -4.87906508	     -4.83970604	    -27.65096456	     22.48686365	     -1.43607078	    -12.50719158	      3.62209581	    -11.57936251
      1.29000000	      3.93444557	     -2.16306219	     -0.79848640	     -0.64991643	      0.94368159	      0.58795498	     -1.95657388	      5.39689872	     -6.17231000	    -17.67195235	     15.97375491	     -2.98077707	      3.34935063	     -5.06598171	     -4.07871752	    -29.86152362	     21.93145124	     -1.82418458	    -12.64168327	      3.78294911	    -11.49694804
      1.30000000	      3.88276797	     -2.27583207	     -0.62635597	     -0.64827069	      0.94349990	      0.58953063	     -2.19560609	      5.65306883	     -6.29140958	    -17.34128793	     15.92413961	     -2.82755420	      4.63266867	     -5.22527642	     -3.25621396	    -32.21372583	     21.28571401	     -2.24908492	    -12.79376075	      3.95178631	    -11.37751151
      1.31000000	      3.80970818	     -2.38684498	     -0.48696649	     -0.64656149	      0.94325304	      0.59110987	     -2.40551919	      5.89446806	     -6.44116656	    -17.02926895	     15.94868552	     -2.60954078	      6.00819427	     -5.34235535	     -2.43390472	    -34.65841576	     20.56659321	     -2.77013775	    -12.92124475	      4.10790154	    -11.17416770
      1.32000000	      3.81667161	     -2.51566844	     -0.34649568	     -0.64474959	      0.94312432	      0.59265394	     -2.75245571	      6.15584922	     -6.58582697	    -16.62908533	     15.87291683	     -2.45754254	      7.32217595	     -5.42597812	     -1.56284781	    -37.09082264	     19.82649948	     -3.15596283	    -13.14646769	      4.28068610	    -10.98114008
      1.33000000	      3.79780899	     -2.63009275	     -0.25727346	     -0.64281713	      0.94291905	      0.59419996	     -3.06709856	      6.38841067	     -6.72422129	    -16.25323662	     15.86242449	     -2.28193221	      8.67217619	     -5.45557643	     -0.75819267	    -39.48231751	     19.10090682	     -3.55422036	    -13.33179556	      4.43045910	    -10.71539433
      1.34000000	      3.78499987	     -2.73102580	     -0.22757854	     -0.64075674	      0.94270311	      0.59577215	     -3.39759836	      6.59481518	     -6.84337656	    -15.87439165	     15.87160232	     -2.10680752	      9.98822895	     -5.43797469	     -0.03699514	    -41.74696632	     18.45482214	     -3.91550010	    -13.52338973	      4.55174721	    -10.39491466
      1.35000000	      3.77591101	     -2.81275248	     -0.25832318	     -0.63856206	      0.94248501	      0.59737199	     -3.74029325	      6.76924043	     -6.92883390	    -15.49776188	     15.89426932	     -1.94287792	     11.25347101	     -5.37657677	      0.57631753	    -43.82647919	     17.93799975	     -4.21542481	    -13.71753576	      4.63986235	    -10.03638505
      1.36000000	      3.76119805	     -2.87154784	     -0.34763085	     -0.63622925	      0.94225690	      0.59899623	     -4.08181293	      6.90779459	     -6.97709747	    -15.13091953	     15.92557965	     -1.79071210	     12.46648082	     -5.27449322	      1.07394094	    -45.67826565	     17.58704666	     -4.45555230	    -13.90455176	      4.69153201	     -9.64512908
      1.37000000	      3.73452390	     -2.90659756	     -0.48839906	     -0.63375664	      0.94202281	      0.60065112	     -4.41687195	      7.01222109	     -6.98532652	    -14.77157067	     15.96286058	     -1.64854629	     13.62705701	     -5.14054119	      1.45296575	    -47.26651225	     17.40030584	     -4.65507063	    -14.07580337	      4.70482086	     -9.23168864
      1.38000000	      3.69500033	     -2.91760976	     -0.67212207	     -0.63114043	      0.94179020	      0.60234256	     -4.74683792	      7.08507897	     -6.95124083	    -14.41481018	     16.00549854	     -1.51312766	     14.73231286	     -4.98562568	      1.70954003	    -48.56820164	     17.34789518	     -4.84673802	    -14.23120822	      4.67886120	     -8.81235509
      1.39000000	      3.64222886	     -2.90846931	     -0.88819870	     -0.62836978	      0.94156260	      0.60407414	     -5.07384058	      7.13374316	     -6.87526354	    -14.05713962	     16.05534698	     -1.37913568	     15.78333380	     -4.82608793	      1.84175948	    -49.57316130	     17.38630549	     -5.07211954	    -14.37018576	      4.61856107	     -8.39841293
      1.40000000	      3.57699126	     -2.88049791	     -1.12616866	     -0.62544833	      0.94134154	      0.60584170	     -5.39536261	      7.16260134	     -6.75513835	    -13.70454485	     16.11172644	     -1.23761223	     16.78087568	     -4.67018385	      1.85681374	    -50.27815215	     17.48006560	     -5.38621053	    -14.49424171	      4.52675580	     -7.99615254
      1.41000000	      3.50878080	     -2.83595266	     -1.38015961	     -0.62235655	      0.94113666	      0.60765237	     -5.72482887	      7.17540094	     -6.59152970	    -13.35403640	     16.17201718	     -1.09768043	     17.71454574	     -4.53339333	      1.74319028	    -50.68678306	     17.59833237	     -5.81084328	    -14.61038191	      4.40539975	     -7.61030020
